<svg id="Layer_1" data-name="Layer 1" xmlns="http://www.w3.org/2000/svg" viewBox="0 0 129.49 80.15"><defs><style>.cls-1,.cls-2{fill:#0d0d0f;}.cls-2{fill-rule:evenodd;}</style></defs><path class="cls-1" d="M357.49,457l1.17-.64a1.29,1.29,0,0,0,.48.71,1.54,1.54,0,0,0,.9.23,1.16,1.16,0,0,0,.74-.21.74.74,0,0,0,.27-.6c0-.33-.32-.61-.95-.85a4.24,4.24,0,0,1-.5-.2,3.82,3.82,0,0,1-1.38-.83,1.44,1.44,0,0,1-.39-1,1.64,1.64,0,0,1,.64-1.34,2.68,2.68,0,0,1,1.71-.51,2.58,2.58,0,0,1,1.22.27,1.56,1.56,0,0,1,.74.74l-1,.69a.9.9,0,0,0-.38-.46,1.14,1.14,0,0,0-.64-.17,1,1,0,0,0-.64.19.58.58,0,0,0-.25.51c0,.31.37.61,1.09.87l.53.2a3.24,3.24,0,0,1,1.22.76,1.6,1.6,0,0,1,.36,1.06,1.71,1.71,0,0,1-.66,1.44,2.92,2.92,0,0,1-1.84.53,3.05,3.05,0,0,1-1.5-.34,2.36,2.36,0,0,1-.94-1m-2.36,1.11v-4.91h-1.08V452h1.08v-2.33h1.4V452h1.08v1.23h-1.08v4.91Zm-7.44,2.9v-9h1.4v1a2,2,0,0,1,.79-.9,2.52,2.52,0,0,1,1.29-.31,2.48,2.48,0,0,1,2,.9,3.55,3.55,0,0,1,.76,2.37,3.7,3.7,0,0,1-.75,2.45,2.55,2.55,0,0,1-4.08-.16V461Zm1.36-6a2.35,2.35,0,0,0,.47,1.53,1.57,1.57,0,0,0,1.26.57,1.51,1.51,0,0,0,1.23-.53,2.35,2.35,0,0,0,.44-1.52,2.25,2.25,0,0,0-.46-1.51,1.52,1.52,0,0,0-1.25-.55,1.5,1.5,0,0,0-1.24.53A2.22,2.22,0,0,0,349.05,455Zm-3.67-.72a1.44,1.44,0,0,0-.5-1,1.73,1.73,0,0,0-1.16-.35,1.69,1.69,0,0,0-1.11.34,1.78,1.78,0,0,0-.59,1Zm1.46.95h-4.91a2,2,0,0,0,.51,1.34,1.59,1.59,0,0,0,1.23.49,2.08,2.08,0,0,0,1.13-.29,2.44,2.44,0,0,0,.79-.92l1.19.66a3.6,3.6,0,0,1-1.29,1.38,3.38,3.38,0,0,1-1.79.46,3.15,3.15,0,0,1-2.35-.9,3.31,3.31,0,0,1-.88-2.41,3.27,3.27,0,0,1,.9-2.37,3.1,3.1,0,0,1,2.33-.93,3.07,3.07,0,0,1,2.31.85,3.24,3.24,0,0,1,.83,2.37Zm-6.74-1.53a2.17,2.17,0,0,0-.75-.54,2.26,2.26,0,0,0-.94-.19,1.78,1.78,0,0,0-1.38.56,2.41,2.41,0,0,0,0,3,1.88,1.88,0,0,0,1.44.55,2,2,0,0,0,.91-.2,1.86,1.86,0,0,0,.71-.58V458a4,4,0,0,1-.83.33,4.12,4.12,0,0,1-.95.11,3.18,3.18,0,0,1-2.35-.92,3.25,3.25,0,0,1-.91-2.39,3.15,3.15,0,0,1,.94-2.39,3.39,3.39,0,0,1,2.47-.91,4,4,0,0,1,.88.09,2.72,2.72,0,0,1,.75.29Zm-11.77,4.39V452h1.32v1a2.57,2.57,0,0,1,1-.93,3,3,0,0,1,1.39-.29,2.91,2.91,0,0,1,1.17.21,1.7,1.7,0,0,1,.75.65,1.74,1.74,0,0,1,.24.59,7.41,7.41,0,0,1,.07,1.18v3.72h-1.42V455a2.91,2.91,0,0,0-.3-1.61,1.19,1.19,0,0,0-1-.4,2.07,2.07,0,0,0-.88.18,1.46,1.46,0,0,0-.61.51,1.47,1.47,0,0,0-.21.57,5.86,5.86,0,0,0-.07,1.1v2.8Zm-7.64-3.06a3.17,3.17,0,0,1,.26-1.27,3.24,3.24,0,0,1,.73-1.07,3.42,3.42,0,0,1,1.09-.71,3.52,3.52,0,0,1,1.29-.24,3.3,3.3,0,0,1,2.41,1,3.29,3.29,0,0,1,1,2.32,3.34,3.34,0,0,1-.25,1.27,3.2,3.2,0,0,1-.73,1.06,3.7,3.7,0,0,1-1.12.74,3.58,3.58,0,0,1-1.3.25,3.41,3.41,0,0,1-2.38-1,3.53,3.53,0,0,1-.74-1.08A3.2,3.2,0,0,1,320.69,455.07Zm5.28,0a2,2,0,0,0-.55-1.45,1.83,1.83,0,0,0-2.69,0,2.16,2.16,0,0,0,0,2.9,1.83,1.83,0,0,0,2.69,0A2,2,0,0,0,326,455.08Zm-5.65-1.34a2.17,2.17,0,0,0-.75-.54,2.24,2.24,0,0,0-.93-.19,1.79,1.79,0,0,0-1.39.56,2.41,2.41,0,0,0,0,3,1.88,1.88,0,0,0,1.44.55,2,2,0,0,0,.91-.2,1.86,1.86,0,0,0,.71-.58V458a4,4,0,0,1-.83.33,4.12,4.12,0,0,1-.95.11,3.18,3.18,0,0,1-2.35-.92,3.25,3.25,0,0,1-.91-2.39,3.15,3.15,0,0,1,.94-2.39,3.39,3.39,0,0,1,2.47-.91,4,4,0,0,1,.88.09,2.72,2.72,0,0,1,.75.29Zm-10.9.58a1.44,1.44,0,0,0-.5-1,1.73,1.73,0,0,0-1.16-.35,1.69,1.69,0,0,0-1.11.34,1.78,1.78,0,0,0-.59,1Zm1.46.95H306a2,2,0,0,0,.51,1.34,1.59,1.59,0,0,0,1.23.49,2.08,2.08,0,0,0,1.13-.29,2.44,2.44,0,0,0,.79-.92l1.19.66a3.6,3.6,0,0,1-1.29,1.38,3.38,3.38,0,0,1-1.79.46,3.15,3.15,0,0,1-2.35-.9,3.31,3.31,0,0,1-.88-2.41,3.27,3.27,0,0,1,.9-2.37,3.12,3.12,0,0,1,2.33-.93,3.07,3.07,0,0,1,2.31.85,3.24,3.24,0,0,1,.83,2.37Zm-9,2.86v-4.91h-1.08V452h1.08v-2.33h1.41V452h1.07v1.23H303.3v4.91Zm-3.13,0V452h1.41v6.14Zm-.19-8.8a.91.91,0,0,1,.89-.87.85.85,0,0,1,.63.25.89.89,0,0,1,0,1.25.79.79,0,0,1-.62.26.91.91,0,0,1-.89-.89Zm-7.06,8.8v-10h1.32V453a2.57,2.57,0,0,1,1-.93,3,3,0,0,1,1.39-.29,2.91,2.91,0,0,1,1.17.21,1.78,1.78,0,0,1,.76.65,2,2,0,0,1,.23.59,6.36,6.36,0,0,1,.07,1.18v3.72H296V455a3,3,0,0,0-.29-1.61,1.22,1.22,0,0,0-1.05-.4,2.07,2.07,0,0,0-.88.18,1.37,1.37,0,0,0-.6.51,1.34,1.34,0,0,0-.22.57,7.17,7.17,0,0,0-.06,1.1v2.8Zm-3.46.37-1.42-3.19c-.11-.25-.19-.47-.26-.66s-.14-.38-.19-.57l-.25.73-.18.45-1.46,3.24L281.11,452h1.5l1.38,3a3.68,3.68,0,0,1,.16.52,6.57,6.57,0,0,1,.14.72,2.27,2.27,0,0,1,.08-.49,6.19,6.19,0,0,1,.24-.62l1.51-3.32h.11l1.53,3.32a2.74,2.74,0,0,1,.21.58,2.43,2.43,0,0,1,.08.53,6.38,6.38,0,0,1,.15-.66,3.28,3.28,0,0,1,.21-.56l1.35-3h1.49ZM275.31,453a2,2,0,0,1,.59-.9,1.44,1.44,0,0,1,.93-.29,2.48,2.48,0,0,1,1.15.28l-.51,1.19a1.09,1.09,0,0,0-.39-.19,1.68,1.68,0,0,0-.47-.06,1,1,0,0,0-1,.56,4.25,4.25,0,0,0-.3,1.88v2.69H273.9V452h1.41Zm-9.05,2.1a3.17,3.17,0,0,1,.26-1.27,3.24,3.24,0,0,1,.73-1.07,3.42,3.42,0,0,1,1.09-.71,3.52,3.52,0,0,1,1.29-.24,3.58,3.58,0,0,1,1.31.24,3.46,3.46,0,0,1,1.1.73,3.29,3.29,0,0,1,1,2.32,3.34,3.34,0,0,1-.25,1.27,3.2,3.2,0,0,1-.73,1.06,3.7,3.7,0,0,1-1.12.74,3.58,3.58,0,0,1-1.3.25,3.41,3.41,0,0,1-2.38-1,3.53,3.53,0,0,1-.74-1.08A3.2,3.2,0,0,1,266.26,455.07Zm5.28,0a2,2,0,0,0-.55-1.45,1.83,1.83,0,0,0-2.69,0,2.16,2.16,0,0,0,0,2.9,1.83,1.83,0,0,0,2.69,0A2,2,0,0,0,271.54,455.08Zm-15.07,3.05v-10h1.41v6.45l2.57-2.55h1.74l-2.79,2.71,3.06,3.43h-1.82L257.88,455v3.16Zm-.82-4.39a2.08,2.08,0,0,0-.75-.54A2.24,2.24,0,0,0,254,453a1.75,1.75,0,0,0-1.38.56,2,2,0,0,0-.52,1.47,2.08,2.08,0,0,0,.52,1.51,1.88,1.88,0,0,0,1.44.55,2.11,2.11,0,0,0,.92-.2,1.91,1.91,0,0,0,.7-.58V458a4,4,0,0,1-.83.33,4.1,4.1,0,0,1-.94.11,3.19,3.19,0,0,1-2.36-.92,3.25,3.25,0,0,1-.91-2.39,3.15,3.15,0,0,1,.94-2.39,3.39,3.39,0,0,1,2.47-.91,4,4,0,0,1,.88.09,2.72,2.72,0,0,1,.75.29Zm-7.28,1.3a2.27,2.27,0,0,0-.44-1.48,1.72,1.72,0,0,0-2.5,0,2.31,2.31,0,0,0-.46,1.51,2.35,2.35,0,0,0,.44,1.52,1.55,1.55,0,0,0,1.25.53,1.53,1.53,0,0,0,1.23-.58A2.31,2.31,0,0,0,248.37,455Zm1.37,3.09h-1.41v-.79a2.44,2.44,0,0,1-.88.79,2.47,2.47,0,0,1-1.15.26,2.54,2.54,0,0,1-2.05-.89,3.7,3.7,0,0,1-.75-2.45,3.55,3.55,0,0,1,.77-2.37,2.48,2.48,0,0,1,2-.9,2.52,2.52,0,0,1,1.29.31,1.81,1.81,0,0,1,.78.9v-1h1.41Zm-8.58,0v-10h1.41v10Zm-5.77-10V453a2,2,0,0,1,.79-.9,2.52,2.52,0,0,1,1.29-.31,2.48,2.48,0,0,1,2,.9,3.55,3.55,0,0,1,.76,2.37,3.7,3.7,0,0,1-.75,2.45,2.55,2.55,0,0,1-4.08-.16v.79H234v-10Zm0,7a2.31,2.31,0,0,0,.48,1.52,1.57,1.57,0,0,0,1.25.58,1.51,1.51,0,0,0,1.23-.53,2.35,2.35,0,0,0,.44-1.52,2.25,2.25,0,0,0-.46-1.51A1.52,1.52,0,0,0,237,453a1.5,1.5,0,0,0-1.24.53A2.22,2.22,0,0,0,235.35,455Z" transform="translate(-232.94 -380.87)"/><path class="cls-2" d="M291.31,427H232.94v12.28h58.37Zm0-23.05H232.94v12.27h58.37Zm-58.37-10.77h58.37V380.87H232.94Z" transform="translate(-232.94 -380.87)"/><path class="cls-2" d="M315.86,439.25V380.87H303.59v58.38Zm23.05,0V380.87H326.64v58.38Zm10.78-58.38v58.38H362V380.87Z" transform="translate(-232.94 -380.87)"/></svg>